<?xml version="1.0" standalone="no"?>
<!DOCTYPE svg PUBLIC "-//W3C//DTD SVG 20010904//EN"
 "http://www.w3.org/TR/2001/REC-SVG-20010904/DTD/svg10.dtd">
<svg version="1.0" xmlns="http://www.w3.org/2000/svg"
 width="200.000000pt" height="200.000000pt" viewBox="0 0 200.000000 200.000000"
 preserveAspectRatio="xMidYMid meet">
<metadata>
Created by potrace 1.16, written by Peter Selinger 2001-2019
</metadata>
<g transform="translate(0.000000,200.000000) scale(0.100000,-0.100000)"
fill="#000000" stroke="none">
<path d="M1 1548 c1 -421 2 -447 15 -375 37 208 129 383 279 532 149 150 324
242 532 279 72 13 46 14 -374 15 l-453 1 1 -452z"/>
<path d="M1120 1993 c165 -26 304 -77 423 -157 91 -60 222 -190 278 -276 92
-139 152 -302 168 -455 6 -54 9 80 10 408 l1 487 -452 -1 c-249 -1 -442 -3
-428 -6z"/>
<path d="M1990 925 c0 -107 -68 -331 -133 -439 -43 -72 -128 -172 -197 -232
-157 -138 -321 -213 -540 -247 -14 -3 179 -5 428 -6 l452 -1 0 485 c0 267 -2
485 -5 485 -3 0 -5 -20 -5 -45z"/>
<path d="M1 453 l-1 -453 468 2 c257 0 451 3 432 5 -375 40 -691 278 -828 624
-26 64 -52 165 -65 249 -3 14 -5 -179 -6 -427z"/>
<path d="M288 519 c-9 -6 -4 -19 18 -46 69 -86 180 -143 277 -143 l52 0 -25
20 c-14 11 -32 18 -41 16 -10 -2 -22 6 -30 20 -7 13 -16 24 -19 24 -4 0 -15
20 -24 45 -12 31 -23 45 -36 45 -10 0 -20 4 -22 9 -4 11 -134 19 -150 10z"/>
</g>
</svg>
